Coordinates
version=1
nRows=16
nColumns=30
inDegrees=yes

Units are S.I. units (second, meters, Newtons, ...)
Angles are in degrees.

endheader
time	floatyaw	floatroll	floatpitch	floatx	floaty	floatz	pro_sup_l	deviation_l	flexion_l	cmc_flexion_l	cmc_abduction_l	mp_flexion_l	ip_flexion_l	2mcp_flexion_l	2mcp_abduction_l	2pm_flexion_l	2md_flexion_l	3mcp_flexion_l	3mcp_abduction_l	3pm_flexion_l	3md_flexion_l	4mcp_flexion_l	4mcp_abduction_l	4pm_flexion_l	4md_flexion_l	5mcp_flexion_l	5mcp_abduction_l	5pm_flexion_l	5md_flexion_l
-0.495000	-160.147433	-5.066637	-73.570646	0.055961	-0.171777	-0.033411	94.051336	2.821044	-0.542246	14.335442	4.597240	-26.576249	-42.727035	31.045614	8.398461	44.182094	30.849800	27.914759	4.720178	43.489754	28.359549	17.022017	-4.621594	51.738875	35.780851	5.102675	-9.888472	61.096258	45.075330
-0.485000	-160.147433	-5.066637	-73.570646	0.055252	-0.171555	-0.033911	93.865527	2.544037	-0.631218	14.362723	4.831426	-26.408123	-42.471137	31.268886	8.478746	44.457017	30.996110	28.106610	4.733367	43.654578	28.402095	17.207280	-4.634786	51.928720	35.864969	5.339514	-9.923860	61.151982	45.194849
-0.475000	-160.147433	-5.066637	-73.570646	0.054524	-0.171282	-0.034459	93.692362	2.255994	-0.693684	14.365207	5.174010	-26.278302	-42.260105	31.520597	8.562504	44.629414	31.114056	28.346803	4.745370	43.759893	28.406712	17.433267	-4.646650	52.007591	35.910115	5.571707	-9.991001	61.159075	45.362464
-0.465000	-160.147433	-5.066637	-73.570646	0.053796	-0.170969	-0.035029	93.541503	1.992483	-0.721917	14.360227	5.522010	-26.220898	-42.157736	31.776543	8.628607	44.685831	31.188851	28.617654	4.756361	43.791756	28.380790	17.685865	-4.655133	51.980503	35.920149	5.791699	-10.077291	61.115498	45.572685
-0.455000	-160.147433	-5.066637	-73.570646	0.053093	-0.170616	-0.035598	93.418319	1.780318	-0.706584	14.349372	5.794355	-26.239145	-42.172786	31.997935	8.664928	44.658148	31.226080	28.889513	4.765317	43.758265	28.342008	17.964394	-4.658687	51.863446	35.902912	5.995996	-10.167409	61.019817	45.800794
-0.445000	-160.147433	-5.066637	-73.570646	0.052442	-0.170213	-0.036148	93.318978	1.633689	-0.642640	14.314909	5.956660	-26.312580	-42.264845	32.161449	8.671894	44.607355	31.243583	29.142399	4.770905	43.682818	28.309825	18.286490	-4.656284	51.679189	35.868887	6.192267	-10.251468	60.878029	46.016345
-0.435000	-160.147433	-5.066637	-73.570646	0.051854	-0.169749	-0.036678	93.233714	1.556773	-0.534641	14.227630	6.025024	-26.411332	-42.370753	32.282241	8.658203	44.591107	31.256293	29.377047	4.772770	43.592005	28.297786	18.676803	-4.647493	51.454888	35.830157	6.398108	-10.327081	60.708438	46.198846
-0.425000	-160.147433	-5.066637	-73.570646	0.051319	-0.169219	-0.037200	93.154690	1.549060	-0.397888	14.060790	6.048056	-26.508261	-42.433663	32.416429	8.633553	44.634279	31.264509	29.610987	4.772467	43.506413	28.310291	19.145638	-4.633049	51.220793	35.798917	6.632328	-10.395485	60.540831	46.346274
-0.415000	-160.147433	-5.066637	-73.570646	0.050811	-0.168628	-0.037733	93.080377	1.608194	-0.254881	13.804054	6.077429	-26.585510	-42.422280	32.639649	8.604193	44.720260	31.253959	29.864550	4.773292	43.439536	28.344890	19.672049	-4.615599	51.008194	35.785435	6.905002	-10.455499	60.409092	46.471647
-0.405000	-160.147433	-5.066637	-73.570646	0.050292	-0.167993	-0.038294	93.011940	1.727726	-0.129231	13.472211	6.143215	-26.637224	-42.337644	33.011058	8.573652	44.806766	31.207757	30.146831	4.778777	43.402431	28.397498	20.205486	-4.599725	50.844406	35.795702	7.213419	-10.500130	60.339303	46.590422
-0.395000	-160.147433	-5.066637	-73.570646	0.049724	-0.167332	-0.038898	92.945132	1.891963	-0.039830	13.104960	6.245426	-26.670061	-42.210025	33.541017	8.546218	44.854070	31.121670	30.450612	4.790301	43.406215	28.465634	20.688340	-4.590644	50.744435	35.829175	7.546822	-10.518239	60.337332	46.706603
-0.385000	-160.147433	-5.066637	-73.570646	0.049076	-0.166660	-0.039560	92.865532	2.073424	0.003126	12.757037	6.361668	-26.700514	-42.088447	34.179564	8.528715	44.847454	31.011732	30.759017	4.804930	43.456629	28.546352	21.086009	-4.592022	50.702436	35.877294	7.896242	-10.499937	60.381365	46.805733
-0.375000	-160.147433	-5.066637	-73.570646	0.048325	-0.165973	-0.040296	92.751431	2.237407	0.000295	12.482292	6.461842	-26.747899	-42.024501	34.831927	8.528249	44.802147	30.909054	31.058512	4.814882	43.543659	28.630651	21.405027	-4.604134	50.688296	35.923573	8.261415	-10.442043	60.425090	46.859272
-0.365000	-160.147433	-5.066637	-73.570646	0.047452	-0.165252	-0.041132	92.581275	2.353501	-0.036389	12.318077	6.520156	-26.824999	-42.053821	35.393489	8.547559	44.751218	30.845450	31.348030	4.809652	43.636669	28.700551	21.688879	-4.623422	50.653303	35.945985	8.648774	-10.350338	60.414491	46.839169
-0.355000	-160.147433	-5.066637	-73.570646	0.046440	-0.164464	-0.042103	92.338416	2.409174	-0.086299	12.275044	6.520023	-26.931438	-42.181696	35.787950	8.581856	44.726002	30.838768	31.636964	4.780755	43.693912	28.734203	21.996611	-4.643756	50.545065	35.922315	9.062114	-10.237979	60.314483	46.735841
-0.345000	-160.147433	-5.066637	-73.570646	0.045270	-0.163579	-0.043242	92.008818	2.419014	-0.127021	12.333393	6.452968	-27.054426	-42.380101	35.992309	8.620165	44.740573	30.885942	31.934249	4.727266	43.684781	28.718082	22.378236	-4.658634	50.327760	35.838537	9.493491	-10.121992	60.134515	46.570588
